<svg xmlns="http://www.w3.org/2000/svg" viewBox="0 0 32 32" width="32" height="32">
  <defs>
    <linearGradient id="cloudGradient" x1="0%" y1="0%" x2="100%" y2="100%">
      <stop offset="0%" style="stop-color:#6366f1;stop-opacity:1" />
      <stop offset="100%" style="stop-color:#8b5cf6;stop-opacity:1" />
    </linearGradient>
    <filter id="shadow" x="-20%" y="-20%" width="140%" height="140%">
      <feDropShadow dx="0" dy="2" stdDeviation="2" flood-color="#000000" flood-opacity="0.3"/>
    </filter>
  </defs>
  
  <!-- Background circle -->
  <circle cx="16" cy="16" r="15" fill="url(#cloudGradient)" filter="url(#shadow)"/>
  
  <!-- Cloud shape -->
  <path d="M8 18c0-3.3 2.7-6 6-6 0.6 0 1.2 0.1 1.8 0.3 0.8-2.2 2.9-3.8 5.4-3.8 3.3 0 6 2.7 6 6 0 0.6-0.1 1.2-0.3 1.8 2.2 0.8 3.8 2.9 3.8 5.4 0 3.3-2.7 6-6 6H8c-3.3 0-6-2.7-6-6s2.7-6 6-6z" 
        fill="white" opacity="0.9"/>
  
  <!-- Lock icon -->
  <rect x="13" y="20" width="6" height="4" rx="1" fill="#6366f1"/>
  <rect x="14" y="18" width="4" height="3" rx="0.5" fill="#6366f1"/>
  <circle cx="16" cy="22" r="0.5" fill="white"/>
</svg> 